<svg width="1206" height="740" viewBox="0 0 1206 740" fill="none" xmlns="http://www.w3.org/2000/svg">
<rect width="1206" height="740" rx="370" fill="#FCF7F7"/>
<rect x="272" y="137" width="661" height="482" rx="241" fill="#5675E2"/>
<path d="M379.976 437L394.17 331.3H406.401L434.185 383.697L461.667 331.3H474.049L488.092 437H472.992L462.271 350.779L466.046 351.383L434.336 411.934L402.022 351.383L405.797 350.779L395.076 437H379.976ZM520.808 438.51C516.228 438.51 512.226 437.579 508.804 435.716C505.381 433.854 502.713 431.312 500.801 428.091C498.938 424.87 498.007 421.195 498.007 417.068C498.007 412.89 498.913 409.317 500.725 406.347C502.588 403.327 505.054 400.835 508.124 398.873C511.245 396.859 514.718 395.274 518.543 394.116C522.369 392.908 526.32 392.052 530.397 391.549C534.524 390.995 538.475 390.693 542.25 390.643C542.25 383.596 540.866 378.991 538.098 376.826C535.329 374.662 531.328 373.58 526.093 373.58C523.325 373.58 520.355 374.008 517.184 374.863C514.064 375.719 510.54 377.506 506.614 380.224L504.651 369.201C507.621 366.936 511.32 365.099 515.75 363.689C520.179 362.23 524.835 361.5 529.717 361.5C535.959 361.5 540.992 362.607 544.817 364.822C548.643 366.986 551.436 370.661 553.198 375.845C554.959 381.029 555.84 388.076 555.84 396.985V412.085C555.84 415.608 555.991 418.528 556.293 420.843C556.646 423.108 557.401 424.819 558.558 425.977C559.766 427.084 561.679 427.638 564.296 427.638H565.655L563.541 438.51H562.484C558.105 438.51 554.708 438.082 552.292 437.227C549.926 436.371 548.114 435.138 546.856 433.527C545.597 431.916 544.465 429.953 543.458 427.638C540.69 430.859 537.418 433.477 533.643 435.49C529.868 437.503 525.59 438.51 520.808 438.51ZM523.375 427.638C526.999 427.638 530.497 426.732 533.87 424.92C537.292 423.108 540.086 420.692 542.25 417.672V400.005C535.053 400.257 529.214 400.961 524.734 402.119C520.305 403.277 517.058 405.013 514.995 407.328C512.931 409.644 511.899 412.639 511.899 416.313C511.899 420.289 512.956 423.183 515.07 424.995C517.235 426.757 520.003 427.638 523.375 427.638ZM576.145 437V363.01H586.715L589.433 377.204L584.148 374.939C589.131 369.402 593.988 365.778 598.72 364.067C603.501 362.356 608.157 361.5 612.687 361.5C623.509 361.5 631.235 364.621 635.866 370.862C640.547 377.103 642.887 385.559 642.887 396.23V437H629.297V396.23C629.297 388.378 627.837 382.64 624.918 379.016C621.999 375.392 617.016 373.58 609.969 373.58C604.986 373.58 600.406 374.687 596.228 376.902C592.101 379.066 589.383 382.539 588.074 387.321L589.735 379.016V437H576.145ZM684.832 438.51C680.151 438.51 676.401 437.654 673.583 435.943C670.764 434.232 668.7 432.042 667.392 429.374C666.133 426.656 665.504 423.813 665.504 420.843V373.58H652.82L654.028 363.01H665.504V344.739L679.094 343.38V363.01H698.573V373.58H679.094V412.538C679.094 417.269 679.371 420.692 679.925 422.806C680.478 424.92 681.837 426.254 684.002 426.807C686.216 427.361 689.765 427.638 694.647 427.638H698.12L697.063 438.51H684.832ZM710.187 437V363.01H721.361L723.022 375.241C726.797 370.56 730.396 367.112 733.819 364.897C737.292 362.632 740.991 361.5 744.917 361.5C746.175 361.5 747.333 361.651 748.39 361.953L747.031 376.902C746.377 376.751 745.672 376.65 744.917 376.6C744.212 376.499 743.407 376.449 742.501 376.449C738.575 376.449 734.951 377.33 731.629 379.091C728.357 380.803 726.042 382.69 724.683 384.754V437H710.187ZM774.146 438.51C769.566 438.51 765.564 437.579 762.142 435.716C758.719 433.854 756.051 431.312 754.139 428.091C752.276 424.87 751.345 421.195 751.345 417.068C751.345 412.89 752.251 409.317 754.063 406.347C755.926 403.327 758.392 400.835 761.462 398.873C764.583 396.859 768.056 395.274 771.881 394.116C775.707 392.908 779.658 392.052 783.735 391.549C787.862 390.995 791.813 390.693 795.588 390.643C795.588 383.596 794.204 378.991 791.436 376.826C788.667 374.662 784.666 373.58 779.431 373.58C776.663 373.58 773.693 374.008 770.522 374.863C767.402 375.719 763.878 377.506 759.952 380.224L757.989 369.201C760.959 366.936 764.658 365.099 769.088 363.689C773.517 362.23 778.173 361.5 783.055 361.5C789.297 361.5 794.33 362.607 798.155 364.822C801.981 366.986 804.774 370.661 806.536 375.845C808.297 381.029 809.178 388.076 809.178 396.985V412.085C809.178 415.608 809.329 418.528 809.631 420.843C809.984 423.108 810.739 424.819 811.896 425.977C813.104 427.084 815.017 427.638 817.634 427.638H818.993L816.879 438.51H815.822C811.443 438.51 808.046 438.082 805.63 437.227C803.264 436.371 801.452 435.138 800.194 433.527C798.935 431.916 797.803 429.953 796.796 427.638C794.028 430.859 790.756 433.477 786.981 435.49C783.206 437.503 778.928 438.51 774.146 438.51ZM776.713 427.638C780.337 427.638 783.835 426.732 787.208 424.92C790.63 423.108 793.424 420.692 795.588 417.672V400.005C788.391 400.257 782.552 400.961 778.072 402.119C773.643 403.277 770.396 405.013 768.333 407.328C766.269 409.644 765.237 412.639 765.237 416.313C765.237 420.289 766.294 423.183 768.408 424.995C770.573 426.757 773.341 427.638 776.713 427.638Z" fill="white"/>
</svg>
